<svg width="272" height="43" viewBox="0 0 272 43" fill="none" xmlns="http://www.w3.org/2000/svg">
<rect width="272" height="43" rx="21.5" fill="#FF8A00"/>
<path d="M131.328 18.672C130.832 18.96 130.32 19.248 129.728 19.536C128.736 20.032 126.736 20.976 125.264 21.92C123.936 22.784 123.04 23.712 123.04 24.816C123.04 25.968 124.16 26.592 126.384 26.592C128.016 26.592 130.176 26.336 131.6 26L131.584 28.304C130.208 28.528 128.528 28.704 126.448 28.704C123.248 28.704 120.832 27.808 120.832 25.056C120.832 23.024 122.32 21.6 124.224 20.352C125.744 19.344 127.76 18.352 128.736 17.792C129.344 17.44 129.792 17.168 130.208 16.832L131.328 18.672ZM123.28 15.248C124.048 17.376 125.056 19.296 125.808 20.64L123.984 21.696C123.104 20.24 122.144 18.144 121.264 16.08L123.28 15.248ZM141.504 15.184C141.36 15.776 141.296 16.192 141.216 16.608C141.024 17.984 140.272 23.264 140.272 24.88C140.272 26.208 141.072 26.928 142.64 26.928C144.88 26.928 146.112 25.888 146.112 24.576C146.112 23.504 145.504 22.464 144.464 21.488L146.704 21.008C147.776 22.352 148.256 23.472 148.256 24.832C148.256 27.248 146.096 28.992 142.592 28.992C140.064 28.992 138.288 27.904 138.288 25.216C138.288 23.584 139.056 18.72 139.216 16.48C139.28 15.744 139.28 15.424 139.248 15.056L141.504 15.184ZM135.792 17.168C137.184 17.632 139.168 17.84 140.8 17.84C142.032 17.84 143.168 17.76 143.968 17.616L143.904 19.536C142.96 19.632 142.08 19.68 140.736 19.68C139.12 19.68 137.168 19.424 135.696 19.008L135.792 17.168ZM135.44 21.136C137.168 21.728 139.024 21.856 140.64 21.856C141.616 21.856 142.8 21.792 143.84 21.664L143.792 23.568C142.912 23.664 141.968 23.712 140.96 23.712C138.832 23.712 136.8 23.488 135.344 23.072L135.44 21.136ZM157.088 15.424C156.976 15.856 156.816 16.576 156.736 16.928C156.512 18.016 156.128 19.984 155.696 21.6C155.12 23.84 154.048 27.12 153.168 29.008L150.928 28.256C151.888 26.656 153.104 23.296 153.696 21.056C154.112 19.552 154.48 17.808 154.592 16.848C154.672 16.256 154.688 15.6 154.64 15.232L157.088 15.424ZM153.008 17.808C154.96 17.808 157.216 17.52 159.296 17.024V19.024C157.312 19.488 154.8 19.744 152.992 19.744C152.208 19.744 151.616 19.712 151.056 19.68L150.992 17.696C151.824 17.792 152.352 17.808 153.008 17.808ZM158.032 20.272C158.928 20.176 160.064 20.096 161.12 20.096C162.032 20.096 162.992 20.144 163.92 20.24L163.888 22.16C163.072 22.064 162.096 21.968 161.136 21.968C160.016 21.968 159.04 22.016 158.032 22.144V20.272ZM158.896 24.288C158.784 24.736 158.688 25.264 158.688 25.616C158.688 26.32 159.152 26.848 160.88 26.848C161.936 26.848 163.056 26.72 164.192 26.512L164.112 28.56C163.216 28.672 162.144 28.8 160.864 28.8C158.16 28.8 156.72 27.856 156.72 26.24C156.72 25.504 156.848 24.736 156.992 24.096L158.896 24.288ZM162.208 15.888C162.624 16.464 163.184 17.488 163.488 18.08L162.208 18.624C161.872 17.968 161.376 17.024 160.944 16.4L162.208 15.888ZM164.112 15.152C164.528 15.76 165.12 16.768 165.408 17.344L164.128 17.888C163.808 17.216 163.28 16.288 162.848 15.68L164.112 15.152ZM173.232 15.248C173.072 15.824 172.976 16.368 172.848 16.88C172.592 18.16 172.112 20.512 171.632 22C172.928 21.296 174.176 21.008 175.616 21.008C178.192 21.008 179.92 22.368 179.92 24.432C179.92 28.016 176.448 29.328 171.264 28.768L170.704 26.704C174.224 27.264 177.76 26.848 177.76 24.48C177.76 23.536 176.928 22.72 175.36 22.72C173.52 22.72 171.888 23.392 170.944 24.608C170.768 24.832 170.64 25.024 170.496 25.296L168.608 24.64C169.792 22.304 170.688 18.416 170.896 16.768C170.976 16.096 170.992 15.68 170.96 15.152L173.232 15.248ZM167.648 17.12C168.688 17.296 169.968 17.424 170.96 17.424C173.008 17.424 176.048 17.184 178.672 16.624L178.72 18.544C176.688 18.88 173.296 19.264 170.976 19.264C169.76 19.264 168.608 19.2 167.664 19.104L167.648 17.12Z" fill="white"/>
<mask id="mask0_40_14" style="mask-type:alpha" maskUnits="userSpaceOnUse" x="82" y="7" width="28" height="28">
<rect x="82" y="7" width="28" height="28" fill="#D9D9D9"/>
</mask>
<g mask="url(#mask0_40_14)">
<path d="M96 32.6667C94.4056 32.6667 92.8987 32.3604 91.4792 31.7479C90.0598 31.1354 88.8202 30.2993 87.7605 29.2396C86.7007 28.1799 85.8646 26.9403 85.2521 25.5208C84.6396 24.1014 84.3334 22.5945 84.3334 21C84.3334 19.3861 84.6396 17.8695 85.2521 16.45C85.8646 15.0306 86.7007 13.7958 87.7605 12.7458C88.8202 11.6958 90.0598 10.8646 91.4792 10.2521C92.8987 9.63959 94.4056 9.33334 96 9.33334C97.6139 9.33334 99.1306 9.63959 100.55 10.2521C101.969 10.8646 103.204 11.6958 104.254 12.7458C105.304 13.7958 106.135 15.0306 106.748 16.45C107.36 17.8695 107.667 19.3861 107.667 21C107.667 22.5945 107.36 24.1014 106.748 25.5208C106.135 26.9403 105.304 28.1799 104.254 29.2396C103.204 30.2993 101.969 31.1354 100.55 31.7479C99.1306 32.3604 97.6139 32.6667 96 32.6667ZM96 30.3333C98.6056 30.3333 100.817 29.4195 102.635 27.5917C104.454 25.7639 105.353 23.5472 105.333 20.9417C103.953 20.8056 102.893 20.3729 102.154 19.6438C101.415 18.9146 100.783 18.025 100.258 16.975C100.161 16.7611 100.02 16.6007 99.8355 16.4938C99.6507 16.3868 99.4514 16.3333 99.2375 16.3333H92.7917C92.5584 16.3333 92.3493 16.3868 92.1646 16.4938C91.9799 16.6007 91.8389 16.7611 91.7417 16.975C91.2167 18.0445 90.575 18.9438 89.8167 19.6729C89.0584 20.4021 88.0084 20.8347 86.6667 20.9708C86.6667 23.5764 87.5757 25.7882 89.3938 27.6063C91.2118 29.4243 93.4139 30.3333 96 30.3333ZM92.5 23.625C92.0917 23.625 91.7466 23.484 91.4646 23.2021C91.1827 22.9201 91.0417 22.575 91.0417 22.1667C91.0417 21.7583 91.1827 21.4132 91.4646 21.1313C91.7466 20.8493 92.0917 20.7083 92.5 20.7083C92.9084 20.7083 93.2535 20.8493 93.5355 21.1313C93.8174 21.4132 93.9584 21.7583 93.9584 22.1667C93.9584 22.575 93.8174 22.9201 93.5355 23.2021C93.2535 23.484 92.9084 23.625 92.5 23.625ZM99.5 23.625C99.0917 23.625 98.7466 23.484 98.4646 23.2021C98.1827 22.9201 98.0417 22.575 98.0417 22.1667C98.0417 21.7583 98.1827 21.4132 98.4646 21.1313C98.7466 20.8493 99.0917 20.7083 99.5 20.7083C99.9084 20.7083 100.254 20.8493 100.535 21.1313C100.817 21.4132 100.958 21.7583 100.958 22.1667C100.958 22.575 100.817 22.9201 100.535 23.2021C100.254 23.484 99.9084 23.625 99.5 23.625Z" fill="white"/>
</g>
</svg>
