<svg width="272" height="43" viewBox="0 0 272 43" fill="none" xmlns="http://www.w3.org/2000/svg">
<rect width="272" height="43" rx="21.5" fill="#0390AB"/>
<path d="M126.848 19.232C127.44 19.136 128.24 18.928 128.832 18.752C130.048 18.368 133.312 17.232 135.664 17.232C138.544 17.232 140.832 18.896 140.832 21.856C140.832 25.472 137.376 27.792 131.744 28.08L130.8 25.952C135.136 25.856 138.544 24.608 138.544 21.808C138.544 20.304 137.504 19.168 135.584 19.168C133.216 19.168 129.44 20.752 127.76 21.488L126.848 19.232ZM154.352 14.944C154.752 15.504 155.328 16.48 155.632 17.104L154.416 17.648C154.016 16.768 153.68 16.144 153.184 15.424L154.352 14.944ZM156.128 14.208C156.528 14.768 157.136 15.712 157.472 16.336L156.272 16.912C155.84 16.048 155.472 15.44 154.96 14.752L156.128 14.208ZM144.032 16.592C146.368 16.864 148.32 16.912 150.016 16.784C151.472 16.672 152.592 16.432 153.424 16.176L153.68 18C152.848 18.208 151.824 18.416 150.432 18.528C148.768 18.656 146.56 18.656 144.128 18.432L144.032 16.592ZM143.744 19.952C146.624 20.224 149.216 20.192 151.136 20C152.848 19.84 154.064 19.52 154.992 19.248L155.296 21.152C154.336 21.392 153.168 21.6 151.872 21.76C149.84 21.984 146.736 22.016 143.84 21.824L143.744 19.952ZM149.072 17.04C148.912 16.448 148.736 15.856 148.512 15.232L150.656 15.008C150.848 16.528 151.232 17.936 151.664 19.184C152.032 20.288 152.832 21.936 153.568 23.056C153.776 23.376 154 23.616 154.288 23.888L153.312 25.36C152.416 25.168 150.688 24.976 149.52 24.848L149.68 23.328C150.352 23.392 151.216 23.472 151.696 23.504C150.832 22.08 150.256 20.688 149.84 19.52C149.456 18.4 149.28 17.824 149.072 17.04ZM146.8 23.664C146.416 24.192 146.096 24.752 146.096 25.44C146.096 26.608 147.216 27.104 149.344 27.104C150.848 27.104 152.208 26.976 153.36 26.752L153.248 28.784C152.128 28.96 150.656 29.088 149.344 29.088C146.144 29.088 144.16 28.128 144.128 25.856C144.096 24.816 144.448 24.032 144.816 23.28L146.8 23.664ZM158.592 23.248C159.072 22.864 159.456 22.496 159.936 22C160.688 21.232 161.904 19.584 162.912 18.432C164.032 17.152 165.056 17.04 166.224 18.176C167.328 19.232 168.592 20.88 169.536 21.92C170.56 23.04 171.936 24.464 173.456 25.824L171.792 27.744C170.656 26.656 169.296 25.12 168.272 23.92C167.28 22.752 166.08 21.216 165.344 20.368C164.768 19.76 164.464 19.84 164 20.416C163.36 21.232 162.24 22.816 161.552 23.728C161.184 24.24 160.816 24.816 160.528 25.232L158.592 23.248Z" fill="white"/>
<mask id="mask0_41_2" style="mask-type:alpha" maskUnits="userSpaceOnUse" x="82" y="7" width="28" height="28">
<rect x="82" y="7" width="28" height="28" fill="#D9D9D9"/>
</mask>
<g mask="url(#mask0_41_2)">
<path d="M96 25.6667L100.667 21L96 16.3333L94.3666 17.9667L96.2333 19.8333H91.3333V22.1667H96.2333L94.3666 24.0333L96 25.6667ZM96 32.6667C94.3861 32.6667 92.8694 32.3604 91.45 31.7479C90.0305 31.1354 88.7958 30.3042 87.7458 29.2542C86.6958 28.2042 85.8646 26.9695 85.2521 25.55C84.6396 24.1306 84.3333 22.6139 84.3333 21C84.3333 19.3861 84.6396 17.8695 85.2521 16.45C85.8646 15.0306 86.6958 13.7958 87.7458 12.7458C88.7958 11.6958 90.0305 10.8646 91.45 10.2521C92.8694 9.63959 94.3861 9.33334 96 9.33334C97.6139 9.33334 99.1305 9.63959 100.55 10.2521C101.969 10.8646 103.204 11.6958 104.254 12.7458C105.304 13.7958 106.135 15.0306 106.748 16.45C107.36 17.8695 107.667 19.3861 107.667 21C107.667 22.6139 107.36 24.1306 106.748 25.55C106.135 26.9695 105.304 28.2042 104.254 29.2542C103.204 30.3042 101.969 31.1354 100.55 31.7479C99.1305 32.3604 97.6139 32.6667 96 32.6667Z" fill="white"/>
</g>
</svg>
