<svg width="178" height="32" viewBox="0 0 178 32" fill="none" xmlns="http://www.w3.org/2000/svg">
<rect width="178" height="32" rx="16" fill="#0390AB"/>
<path d="M84.663 13.587C84.322 13.785 83.97 13.983 83.563 14.181C82.881 14.522 81.506 15.171 80.494 15.82C79.581 16.414 78.965 17.052 78.965 17.811C78.965 18.603 79.735 19.032 81.264 19.032C82.386 19.032 83.871 18.856 84.85 18.625L84.839 20.209C83.893 20.363 82.738 20.484 81.308 20.484C79.108 20.484 77.447 19.868 77.447 17.976C77.447 16.579 78.47 15.6 79.779 14.742C80.824 14.049 82.21 13.367 82.881 12.982C83.299 12.74 83.607 12.553 83.893 12.322L84.663 13.587ZM79.13 11.233C79.658 12.696 80.351 14.016 80.868 14.94L79.614 15.666C79.009 14.665 78.349 13.224 77.744 11.805L79.13 11.233ZM91.659 11.189C91.56 11.596 91.516 11.882 91.461 12.168C91.329 13.114 90.812 16.744 90.812 17.855C90.812 18.768 91.362 19.263 92.44 19.263C93.98 19.263 94.827 18.548 94.827 17.646C94.827 16.909 94.409 16.194 93.694 15.523L95.234 15.193C95.971 16.117 96.301 16.887 96.301 17.822C96.301 19.483 94.816 20.682 92.407 20.682C90.669 20.682 89.448 19.934 89.448 18.086C89.448 16.964 89.976 13.62 90.086 12.08C90.13 11.574 90.13 11.354 90.108 11.101L91.659 11.189ZM87.732 12.553C88.689 12.872 90.053 13.015 91.175 13.015C92.022 13.015 92.803 12.96 93.353 12.861L93.309 14.181C92.66 14.247 92.055 14.28 91.131 14.28C90.02 14.28 88.678 14.104 87.666 13.818L87.732 12.553ZM87.49 15.281C88.678 15.688 89.954 15.776 91.065 15.776C91.736 15.776 92.55 15.732 93.265 15.644L93.232 16.953C92.627 17.019 91.978 17.052 91.285 17.052C89.822 17.052 88.425 16.898 87.424 16.612L87.49 15.281ZM102.373 11.354C102.296 11.651 102.186 12.146 102.131 12.388C101.977 13.136 101.713 14.489 101.416 15.6C101.02 17.14 100.283 19.395 99.678 20.693L98.138 20.176C98.798 19.076 99.634 16.766 100.041 15.226C100.327 14.192 100.58 12.993 100.657 12.333C100.712 11.926 100.723 11.475 100.69 11.222L102.373 11.354ZM99.568 12.993C100.91 12.993 102.461 12.795 103.891 12.454V13.829C102.527 14.148 100.8 14.324 99.557 14.324C99.018 14.324 98.611 14.302 98.226 14.28L98.182 12.916C98.754 12.982 99.117 12.993 99.568 12.993ZM103.022 14.687C103.638 14.621 104.419 14.566 105.145 14.566C105.772 14.566 106.432 14.599 107.07 14.665L107.048 15.985C106.487 15.919 105.816 15.853 105.156 15.853C104.386 15.853 103.715 15.886 103.022 15.974V14.687ZM103.616 17.448C103.539 17.756 103.473 18.119 103.473 18.361C103.473 18.845 103.792 19.208 104.98 19.208C105.706 19.208 106.476 19.12 107.257 18.977L107.202 20.385C106.586 20.462 105.849 20.55 104.969 20.55C103.11 20.55 102.12 19.901 102.12 18.79C102.12 18.284 102.208 17.756 102.307 17.316L103.616 17.448ZM105.893 11.673C106.179 12.069 106.564 12.773 106.773 13.18L105.893 13.554C105.662 13.103 105.321 12.454 105.024 12.025L105.893 11.673ZM107.202 11.167C107.488 11.585 107.895 12.278 108.093 12.674L107.213 13.048C106.993 12.586 106.63 11.948 106.333 11.53L107.202 11.167ZM113.472 11.233C113.362 11.629 113.296 12.003 113.208 12.355C113.032 13.235 112.702 14.852 112.372 15.875C113.263 15.391 114.121 15.193 115.111 15.193C116.882 15.193 118.07 16.128 118.07 17.547C118.07 20.011 115.683 20.913 112.119 20.528L111.734 19.109C114.154 19.494 116.585 19.208 116.585 17.58C116.585 16.931 116.013 16.37 114.935 16.37C113.67 16.37 112.548 16.832 111.899 17.668C111.778 17.822 111.69 17.954 111.591 18.141L110.293 17.69C111.107 16.084 111.723 13.411 111.866 12.278C111.921 11.816 111.932 11.53 111.91 11.167L113.472 11.233ZM109.633 12.52C110.348 12.641 111.228 12.729 111.91 12.729C113.318 12.729 115.408 12.564 117.212 12.179L117.245 13.499C115.848 13.73 113.516 13.994 111.921 13.994C111.085 13.994 110.293 13.95 109.644 13.884L109.633 12.52Z" fill="white"/>
<mask id="mask0_23_424" style="mask-type:alpha" maskUnits="userSpaceOnUse" x="54" y="7" width="18" height="18">
<rect x="54" y="7" width="18" height="18" fill="#D9D9D9"/>
</mask>
<g mask="url(#mask0_23_424)">
<path d="M63 23.5C61.975 23.5 61.0063 23.3031 60.0938 22.9094C59.1812 22.5156 58.3844 21.9781 57.7031 21.2969C57.0219 20.6156 56.4844 19.8188 56.0906 18.9062C55.6969 17.9937 55.5 17.025 55.5 16C55.5 14.9625 55.6969 13.9875 56.0906 13.075C56.4844 12.1625 57.0219 11.3687 57.7031 10.6937C58.3844 10.0187 59.1812 9.48438 60.0938 9.09063C61.0063 8.69688 61.975 8.5 63 8.5C64.0375 8.5 65.0125 8.69688 65.925 9.09063C66.8375 9.48438 67.6313 10.0187 68.3063 10.6937C68.9813 11.3687 69.5156 12.1625 69.9094 13.075C70.3031 13.9875 70.5 14.9625 70.5 16C70.5 17.025 70.3031 17.9937 69.9094 18.9062C69.5156 19.8188 68.9813 20.6156 68.3063 21.2969C67.6313 21.9781 66.8375 22.5156 65.925 22.9094C65.0125 23.3031 64.0375 23.5 63 23.5ZM63 22C64.675 22 66.0969 21.4125 67.2656 20.2375C68.4344 19.0625 69.0125 17.6375 69 15.9625C68.1125 15.875 67.4313 15.5969 66.9563 15.1281C66.4813 14.6594 66.075 14.0875 65.7375 13.4125C65.675 13.275 65.5844 13.1719 65.4656 13.1031C65.3469 13.0344 65.2188 13 65.0813 13H60.9375C60.7875 13 60.6531 13.0344 60.5344 13.1031C60.4156 13.1719 60.325 13.275 60.2625 13.4125C59.925 14.1 59.5125 14.6781 59.025 15.1469C58.5375 15.6156 57.8625 15.8938 57 15.9813C57 17.6563 57.5844 19.0781 58.7531 20.2469C59.9219 21.4156 61.3375 22 63 22ZM60.75 17.6875C60.4875 17.6875 60.2656 17.5969 60.0844 17.4156C59.9031 17.2344 59.8125 17.0125 59.8125 16.75C59.8125 16.4875 59.9031 16.2656 60.0844 16.0844C60.2656 15.9031 60.4875 15.8125 60.75 15.8125C61.0125 15.8125 61.2344 15.9031 61.4156 16.0844C61.5969 16.2656 61.6875 16.4875 61.6875 16.75C61.6875 17.0125 61.5969 17.2344 61.4156 17.4156C61.2344 17.5969 61.0125 17.6875 60.75 17.6875ZM65.25 17.6875C64.9875 17.6875 64.7656 17.5969 64.5844 17.4156C64.4031 17.2344 64.3125 17.0125 64.3125 16.75C64.3125 16.4875 64.4031 16.2656 64.5844 16.0844C64.7656 15.9031 64.9875 15.8125 65.25 15.8125C65.5125 15.8125 65.7344 15.9031 65.9156 16.0844C66.0969 16.2656 66.1875 16.4875 66.1875 16.75C66.1875 17.0125 66.0969 17.2344 65.9156 17.4156C65.7344 17.5969 65.5125 17.6875 65.25 17.6875Z" fill="white"/>
</g>
</svg>
