<svg width="272" height="43" viewBox="0 0 272 43" fill="none" xmlns="http://www.w3.org/2000/svg">
<rect width="272" height="43" rx="21.5" fill="#0390AB"/>
<path d="M130.846 15.28C130.782 15.632 130.766 16.016 130.766 16.384C130.734 17.12 130.766 20.144 130.766 21.088C130.766 24.848 130.478 27.184 127.294 29.2L125.438 27.76C126.062 27.488 126.862 26.976 127.31 26.48C128.526 25.2 128.798 23.76 128.798 21.072C128.798 19.872 128.766 17.28 128.686 16.384C128.654 16 128.574 15.536 128.51 15.28H130.846ZM124.526 18.416C125.31 18.528 126.094 18.576 126.958 18.576C129.022 18.576 131.582 18.432 133.15 18.144V20.224C131.63 20.4 129.166 20.528 127.006 20.528C126.302 20.528 125.326 20.48 124.526 20.432V18.416ZM122.878 15.552C122.75 15.952 122.59 16.528 122.51 16.864C122.11 18.64 121.534 22 121.966 23.984C122.174 23.488 122.478 22.704 122.734 22.128L123.742 22.768C123.262 24.144 122.846 25.744 122.654 26.656C122.59 26.912 122.542 27.264 122.558 27.44C122.558 27.616 122.574 27.888 122.59 28.112L120.798 28.288C120.446 27.312 119.886 25.088 119.886 23.104C119.886 20.48 120.206 18.016 120.414 16.704C120.478 16.272 120.494 15.728 120.51 15.328L122.878 15.552ZM136.67 21.232C137.15 21.152 137.886 20.96 138.366 20.8C139.47 20.48 142.174 19.552 144.11 19.552C146.654 19.552 148.35 21.056 148.35 23.488C148.35 26.368 145.79 28.352 140.718 28.656L139.87 26.688C143.518 26.592 146.222 25.616 146.222 23.44C146.222 22.256 145.326 21.408 143.918 21.408C142.062 21.408 138.878 22.736 137.502 23.312L136.67 21.232ZM150.738 17.008C151.362 16.992 152.002 16.96 152.306 16.928C153.65 16.8 156.274 16.576 159.218 16.32C160.866 16.176 162.61 16.08 163.746 16.032L163.762 18.096C162.898 18.096 161.522 18.112 160.658 18.304C158.738 18.816 157.282 20.896 157.282 22.784C157.282 25.424 159.746 26.368 162.45 26.512L161.714 28.704C158.354 28.496 155.186 26.688 155.186 23.216C155.186 20.912 156.482 19.104 157.57 18.288C156.066 18.448 152.802 18.784 150.946 19.2L150.738 17.008ZM169.746 16.576C169.634 17.136 169.554 18.08 169.554 18.528C169.554 19.568 169.554 20.752 169.65 21.92C169.874 24.224 170.354 25.808 171.362 25.808C172.13 25.808 172.754 23.92 173.058 22.656L174.674 24.592C173.602 27.392 172.61 28.352 171.33 28.352C169.554 28.352 168.034 26.784 167.586 22.496C167.426 21.024 167.41 19.136 167.41 18.16C167.41 17.728 167.394 17.04 167.282 16.544L169.746 16.576ZM177.746 16.928C179.266 18.768 180.498 22.768 180.674 25.216L178.562 26.048C178.322 23.456 177.458 19.584 175.714 17.6L177.746 16.928Z" fill="white"/>
<mask id="mask0_26_485" style="mask-type:alpha" maskUnits="userSpaceOnUse" x="82" y="7" width="28" height="28">
<rect x="82" y="7" width="28" height="28" fill="#D9D9D9"/>
</mask>
<g mask="url(#mask0_26_485)">
<path d="M94.3667 25.9L102.592 17.675L100.958 16.0417L94.3667 22.6333L91.0417 19.3083L89.4083 20.9417L94.3667 25.9ZM87.8333 31.5C87.1917 31.5 86.6424 31.2715 86.1854 30.8146C85.7285 30.3576 85.5 29.8083 85.5 29.1667V12.8333C85.5 12.1917 85.7285 11.6424 86.1854 11.1854C86.6424 10.7285 87.1917 10.5 87.8333 10.5H104.167C104.808 10.5 105.358 10.7285 105.815 11.1854C106.272 11.6424 106.5 12.1917 106.5 12.8333V29.1667C106.5 29.8083 106.272 30.3576 105.815 30.8146C105.358 31.2715 104.808 31.5 104.167 31.5H87.8333Z" fill="white"/>
</g>
</svg>
