<svg width="74" height="25" viewBox="0 0 74 25" fill="none" xmlns="http://www.w3.org/2000/svg">
<path fill-rule="evenodd" clip-rule="evenodd" d="M25.4674 3L25.4022 3.39232L22.8262 18.9091L22.3282 21.9091H22.941H25.3692H35.9191L36.1119 20.7727L36.6208 17.7727H33.5779H31.2011H28.1634L28.6407 14.7727L28.6804 14.5227H36.4731L36.6658 13.3864L37.1748 10.3864H34.1319H32.4199H29.3821L29.8594 7.38636L29.8992 7.13636H38.374H38.3935L38.5863 6L39.0556 3.23332L39.0952 3H37.8408H36.0524H26.0802H25.4674ZM37.4541 0H39.0952H40.8656H42.647H46.5901H49.4235L49.5396 2.03132L49.6309 1.81824L50.4102 0H52.3884H56.894H59.6141L59.8209 2.10792L59.8937 1.9195L60.6348 0H62.6923H68.4168H73.1029L71.1413 4.25582L62.4254 23.1649L61.6214 24.9091H59.7009H54.7889H52.1703L51.8164 22.3144L51.7099 21.5332L50.928 23.1897L50.1164 24.9091H48.2151H43.3031H40.665L40.3278 22.2926L39.7099 17.4999L39.5785 18.2745L38.8768 22.4109L38.453 24.9091H35.9191H22.4429H22.3282H19.8999H18.7891H15.6158H13.7952L12.9546 23.2941L11.8407 21.1537L11.6315 22.4041L11.2125 24.9091H8.67263H3.53911H0L0.579615 21.4178L3.71882 2.50868L4.1353 0H6.67831H11.0363H12.8659L13.7034 1.62661L14.7555 3.66969L14.9452 2.51397L15.358 0H17.9056H22.9244H23.0391H25.4674H26.5782H37.4541ZM16.2942 12.8146L17.0607 8.14642L17.9056 3H19.998H22.4263H23.0391L22.5411 6L19.965 21.5168L19.8999 21.9091H19.2871H15.6158L12.6633 16.2361L10.4559 11.9947L10.4454 11.9744H10.3346L10.324 12.0376L9.53887 16.7309L8.67263 21.9091H6.58017H3.53911L4.03716 18.9091L6.67831 3H11.0363L13.9397 8.63854L16.1192 12.8712L16.1329 12.8977H16.2806L16.2942 12.8146ZM41.415 7.26209L43.3031 21.9091H48.2151L50.9663 16.0804L53.1907 11.3681L53.2009 11.3466H53.3486L53.3588 11.4211L54.059 16.5566L54.7889 21.9091H59.7009L67.034 6L68.4168 3H65.1134H62.6923L60.4725 8.74974L58.1925 14.6554L58.1867 14.6705H58.0389L58.0331 14.6112L57.4173 8.33374L56.894 3H52.3884L49.9236 8.75112L47.4063 14.6249L47.4026 14.6335H47.2548L47.2511 14.5686L46.8882 8.21787L46.5901 3H43.8905H42.1381H40.8656L40.9052 3.30705L41.2524 6L41.415 7.26209Z" fill="#FF8A00"/>
</svg>
