<svg width="300" height="400" viewBox="0 0 300 400" fill="none" xmlns="http://www.w3.org/2000/svg">
<rect width="300" height="400" fill="#F7FEFF"/>
<path fill-rule="evenodd" clip-rule="evenodd" d="M110.625 218.185C106.379 221.317 102.557 226.726 101.283 234.583C101.157 235.949 104.256 238.315 105.105 238.341C108.927 238.455 112.926 236.203 113.598 234.583L113.781 234.14C114.735 231.834 116.762 226.934 117.844 225.018C119.388 222.285 122.515 214.359 120.816 214.086C117.419 213.539 114.022 215.68 110.625 218.185ZM190.407 218.185C194.653 221.317 198.476 226.726 199.749 234.583C199.875 235.949 196.777 238.315 195.928 238.341C192.106 238.455 188.107 236.203 187.435 234.583L187.251 234.139L187.25 234.139C186.297 231.832 184.271 226.933 183.188 225.018C181.644 222.285 178.517 214.359 180.216 214.086C183.613 213.539 187.01 215.68 190.407 218.185ZM195.676 266.47C195.333 266.836 195.004 267.21 194.65 267.614C194.404 267.894 194.146 268.189 193.86 268.507C192.493 270.023 190.434 272.172 187.512 272.345C187.077 272.371 186.704 272.489 185.976 272.719L185.945 272.73C185.246 272.951 184.268 273.253 183.059 273.253C182.657 273.253 182.322 273.274 181.923 273.299C181.588 273.32 181.208 273.344 180.706 273.361C180.21 273.376 179.632 273.381 179.031 273.325C178.94 273.49 178.838 273.696 178.708 273.967L178.673 274.038C178.49 274.418 178.238 274.939 177.936 275.412C177.612 275.918 177.107 276.571 176.324 277.02C175.415 277.543 174.624 278.067 173.768 278.634L173.767 278.635C173.14 279.049 172.479 279.488 171.71 279.965C170.039 281.004 168.145 282.03 165.942 282.621C165.37 282.774 164.819 282.994 164.132 283.268C163.837 283.387 163.517 283.514 163.16 283.652C162.103 284.056 160.757 284.517 159.323 284.556C156.989 284.619 154.615 284.598 152.291 284.577H152.289C151.152 284.567 150.026 284.557 148.924 284.557C142.272 284.557 134.661 281.023 129.498 277.063C126.813 277.326 124.158 277.324 121.625 277.323H121.056C117.742 277.323 114.272 277.014 110.899 275.521C108.815 274.599 107.064 273.277 105.528 272.077C105.355 271.943 105.186 271.81 105.018 271.678L105.018 271.677C104.672 271.407 104.337 271.144 104.007 270.891C103.995 271.83 103.869 272.695 103.766 273.404L103.76 273.45C103.644 274.249 103.559 274.859 103.559 275.482C103.559 276.748 102.538 277.775 101.279 277.775C100.02 277.775 99 276.748 99 275.482C99 274.503 99.1319 273.593 99.2393 272.852L99.2486 272.788C99.3637 271.993 99.4494 271.372 99.4494 270.734C99.4494 270.625 99.433 270.405 99.3946 269.989L99.3853 269.888C99.3529 269.538 99.3128 269.105 99.2892 268.675C99.2637 268.211 99.251 267.659 99.3053 267.128C99.3498 266.694 99.4733 265.83 100.049 265.107C100.608 264.404 101.074 263.063 101.361 261.215C101.634 259.449 101.697 257.555 101.697 256.039C101.697 254.773 102.717 253.746 103.976 253.746C105.235 253.746 106.256 254.773 106.256 256.039C106.256 257.649 106.192 259.814 105.865 261.921C105.67 263.181 105.361 264.566 104.833 265.837C105.909 266.558 106.904 267.34 107.821 268.06L107.822 268.062L107.833 268.07L108.014 268.212C108.056 268.245 108.098 268.278 108.139 268.31C108.175 268.339 108.212 268.367 108.247 268.396L108.324 268.454C109.854 269.65 111.216 270.651 112.735 271.323C115.259 272.441 117.991 272.737 121.056 272.737H121.286C124.017 272.737 126.607 272.737 129.087 272.497C129.528 272.291 130.026 272.233 130.502 272.331C132.404 272.064 134.242 271.623 136.033 270.894C136.905 270.539 137.754 270.048 138.759 269.458L138.848 269.406C139.784 268.856 140.869 268.219 142.038 267.734C143.416 267.164 144.923 266.829 146.296 266.577C146.942 266.459 147.518 266.364 148.063 266.275C148.789 266.156 149.459 266.046 150.165 265.9C155.319 264.84 161.503 265.237 166.393 266.088C166.96 266.187 167.539 266.286 168.126 266.386H168.128C171.64 266.985 175.433 267.632 178.887 268.661C179.226 268.762 179.756 268.803 180.557 268.776C180.773 268.77 181.07 268.752 181.396 268.735C181.956 268.703 182.599 268.667 183.059 268.667C183.516 268.667 183.919 268.564 184.575 268.355C184.625 268.34 184.677 268.322 184.732 268.305C185.339 268.11 186.222 267.827 187.245 267.766C188.092 267.717 189.008 267.064 190.483 265.426C190.68 265.208 190.894 264.963 191.119 264.707C191.61 264.149 192.15 263.533 192.668 263.002C193.037 262.625 193.442 262.236 193.887 261.871C193.727 261.13 193.767 260.456 193.789 260.093C193.792 260.056 193.794 260.022 193.795 259.992C193.814 259.617 193.807 259.469 193.804 259.427V259.419C193.407 258.538 192.646 256.819 192.501 255.363C192.377 254.103 193.29 252.979 194.543 252.853C195.796 252.727 196.913 253.647 197.039 254.907C197.096 255.491 197.508 256.532 197.969 257.552C198.44 258.595 198.381 259.653 198.352 260.16L198.348 260.236C198.327 260.622 198.331 260.784 198.331 260.837C198.331 260.846 198.332 260.853 198.331 260.857C198.483 261.213 198.621 261.472 198.796 261.796L198.797 261.797C198.933 262.053 199.093 262.351 199.298 262.769C199.685 263.559 200.117 264.598 200.192 265.841C200.193 265.851 200.206 265.915 200.262 266.052C200.335 266.233 200.427 266.418 200.572 266.71L200.636 266.837L200.647 266.859C200.957 267.485 201.493 268.565 201.543 269.867C201.567 270.501 201.647 271.146 201.743 271.918L201.775 272.176C201.88 273.023 201.994 274.004 201.994 275.03C201.994 276.296 200.973 277.323 199.715 277.323C198.455 277.323 197.435 276.296 197.435 275.03C197.435 274.317 197.356 273.586 197.251 272.742L197.218 272.479C197.125 271.737 197.019 270.888 196.987 270.044C196.979 269.832 196.889 269.557 196.556 268.885C196.535 268.843 196.511 268.796 196.484 268.743L196.482 268.74C196.243 268.268 195.812 267.42 195.676 266.47ZM167.412 270.916C169.813 271.326 172.194 271.733 174.468 272.249C174.323 272.544 174.215 272.753 174.103 272.928C174.053 273.006 174.018 273.052 173.998 273.075C173.047 273.626 172.01 274.308 171.039 274.947L171.036 274.949C170.423 275.353 169.836 275.739 169.313 276.065C167.794 277.008 166.34 277.768 164.767 278.19C163.915 278.418 162.988 278.789 162.214 279.099C161.971 279.196 161.743 279.287 161.537 279.366C160.543 279.746 159.811 279.955 159.2 279.972C156.945 280.033 154.718 280.013 152.445 279.992H152.443H152.441H152.44H152.438H152.436H152.435H152.433C151.278 279.981 150.112 279.971 148.924 279.971C144.848 279.971 139.996 278.231 135.861 275.822C136.491 275.624 137.119 275.4 137.743 275.145C138.958 274.651 140.075 273.995 141.032 273.434L141.056 273.419C142.068 272.825 142.91 272.333 143.774 271.976C144.696 271.593 145.819 271.326 147.114 271.089C147.57 271.005 148.09 270.919 148.627 270.83H148.628H148.629C149.462 270.691 150.337 270.546 151.078 270.393C155.454 269.493 161.008 269.805 165.615 270.607C166.211 270.711 166.806 270.813 167.4 270.914L167.412 270.916Z" fill="#454545"/>
<path d="M53.838 121.256L44.928 119.804C44.598 119.738 44.367 119.441 44.4 119.111C44.565 117.593 44.895 116.108 45.39 114.689C45.489 114.392 45.786 114.227 46.083 114.26C49.152 114.689 52.188 115.382 55.191 116.306C55.488 116.405 55.686 116.702 55.62 117.032C55.422 118.451 55.059 119.771 54.498 120.926C54.366 121.19 54.102 121.322 53.838 121.256ZM43.707 140.858C42.717 140.495 41.826 140.033 41.034 139.439C40.869 139.307 40.803 139.109 40.803 138.944C40.803 138.845 40.836 138.746 40.869 138.647L45.687 128.879L43.146 129.011H43.08C42.816 129.011 42.585 128.78 42.519 128.516C42.288 127.295 42.189 126.041 42.189 124.688C42.189 124.358 42.453 124.094 42.783 124.061C44.004 123.995 45.225 123.929 46.446 123.929C48.789 123.929 51.099 124.094 53.442 124.391C53.706 124.424 53.937 124.622 53.97 124.919C54.036 125.282 54.069 125.645 54.069 126.008C54.069 126.536 54.003 127.064 53.871 127.592C53.838 127.691 53.805 127.757 53.739 127.856C51.297 130.859 49.779 132.641 47.436 135.083L47.601 135.215C47.865 135.116 48.129 135.083 48.393 135.083C48.921 135.083 49.482 135.281 50.142 135.71C50.34 135.842 50.637 135.974 50.934 135.974C51.495 135.974 52.122 135.512 52.32 133.598C52.353 133.235 52.683 133.004 53.046 133.07C54.696 133.367 56.412 133.961 58.128 134.753C58.425 134.918 58.557 135.281 58.458 135.578C56.808 139.538 54.432 140.825 52.419 140.825C51.264 140.825 50.241 140.396 49.581 139.835C48.921 139.307 48.327 138.977 47.601 138.977C46.743 138.977 45.753 139.472 44.367 140.726C44.202 140.891 43.938 140.957 43.707 140.858ZM77.796 138.482C77.631 138.515 77.466 138.515 77.301 138.515C75.783 138.515 74.397 137.525 74.1 135.974C73.44 132.542 72.945 129.044 72.615 125.546V125.48C72.615 125.216 72.78 124.952 73.044 124.886C74.661 124.391 76.74 124.127 78.918 124.094C79.248 124.094 79.545 124.358 79.578 124.688L80.172 134.357L82.02 134.126H82.086C82.383 134.126 82.647 134.324 82.713 134.588C82.911 135.347 82.977 136.139 82.911 136.997C82.911 137.261 82.713 137.525 82.449 137.591C81.195 137.921 79.413 138.251 77.796 138.482ZM89.313 136.931C89.016 136.865 88.818 136.601 88.818 136.337C88.719 132.806 88.488 129.308 88.125 125.81V125.744C88.125 125.447 88.356 125.183 88.62 125.15C89.61 124.952 90.765 124.886 91.854 124.886C92.316 124.886 92.745 124.886 93.174 124.919C93.471 124.919 93.735 125.183 93.735 125.48C93.834 126.932 93.9 128.384 93.9 129.836C93.9 132.047 93.768 134.225 93.504 136.37C93.471 136.634 93.273 136.865 93.009 136.931C92.481 137.063 91.821 137.129 91.194 137.129C90.534 137.129 89.907 137.063 89.313 136.931ZM113.799 138.449C109.476 138.449 107.298 134.885 107.298 131.057C107.298 126.767 110.103 122.147 115.614 122.147C124.029 122.147 125.844 129.836 125.976 137.228C125.976 137.492 125.811 137.756 125.514 137.822C124.458 138.119 123.336 138.185 122.214 138.119C121.95 138.119 121.752 137.954 121.653 137.69C121.257 136.37 120.498 135.347 119.574 134.786C118.848 136.535 116.901 138.449 113.799 138.449ZM113.766 132.113C114.228 132.113 114.591 131.75 114.591 131.288C114.591 130.826 114.228 130.463 113.766 130.463C113.304 130.463 112.941 130.826 112.941 131.288C112.941 131.75 113.304 132.113 113.766 132.113ZM154.257 121.19L146.205 120.497C145.908 120.464 145.644 120.233 145.644 119.903C145.611 119.408 145.578 118.913 145.578 118.451C145.578 117.494 145.677 116.603 145.842 115.778C145.908 115.481 146.172 115.283 146.469 115.283C146.931 115.283 147.426 115.25 147.888 115.25C150.33 115.25 152.673 115.481 154.917 115.976C155.214 116.042 155.412 116.273 155.412 116.57C155.478 118.022 155.313 119.408 154.917 120.728C154.818 121.025 154.554 121.223 154.257 121.19ZM151.881 139.835C150.726 139.604 149.67 139.076 148.68 138.35C148.515 138.218 148.416 138.02 148.416 137.822C148.416 137.723 148.449 137.591 148.515 137.492C149.043 136.7 150.033 135.017 150.726 133.268C150.891 132.839 150.957 132.476 150.957 132.146C150.957 130.628 149.34 130.133 147.723 130.265C146.304 130.397 144.489 130.694 143.598 130.826H143.466C143.202 130.826 142.971 130.661 142.872 130.397C142.509 129.176 142.311 127.988 142.311 126.833C142.311 126.536 142.311 126.239 142.344 125.942C142.344 125.645 142.575 125.381 142.872 125.348C143.763 125.183 145.809 124.853 147.822 124.556C148.845 124.391 149.835 124.325 150.759 124.325C154.818 124.325 157.887 125.81 157.887 128.615C157.887 131.717 156.039 135.083 152.541 139.604C152.376 139.802 152.112 139.901 151.881 139.835ZM188.841 124.721C185.244 124.325 181.812 123.533 178.479 122.378C178.182 122.279 178.017 122.015 178.05 121.718C178.248 119.771 178.644 117.89 179.337 116.108C179.469 115.811 179.766 115.646 180.063 115.712C183.561 116.57 186.96 117.659 190.359 118.913C190.623 119.012 190.788 119.309 190.755 119.573C190.557 121.256 190.128 122.873 189.468 124.358C189.369 124.622 189.105 124.754 188.841 124.721ZM182.472 141.287C182.175 141.254 181.911 141.023 181.878 140.726C181.812 140.198 181.779 139.67 181.779 139.208C181.779 138.878 182.01 138.614 182.34 138.581C183.693 138.449 184.452 137.789 184.452 137.129C184.452 136.337 183.33 135.512 180.756 135.578C180.459 135.578 180.162 135.347 180.129 135.05C179.832 132.509 179.634 129.869 179.568 127.163V127.097C179.568 126.8 179.799 126.569 180.096 126.503C181.185 126.371 182.274 126.305 183.429 126.305C183.858 126.305 184.287 126.305 184.716 126.338C185.046 126.338 185.31 126.635 185.31 126.998L184.914 132.839C188.049 133.169 189.765 135.083 189.765 136.997C189.765 139.208 187.488 141.452 182.472 141.287ZM225.141 119.243C224.184 119.243 223.128 118.583 223.128 117.065C223.128 115.514 224.184 114.524 225.24 114.524C225.735 114.524 226.23 114.755 226.593 115.217C227.187 114.722 227.748 114.491 228.21 114.491C229.167 114.491 229.794 115.448 229.794 116.603C229.794 118.352 228.639 119.045 227.715 119.045C227.187 119.045 226.758 118.814 226.659 118.451C226.428 118.946 225.801 119.243 225.141 119.243ZM217.056 120.134L216.264 122.939C221.643 123.764 222.897 128.12 222.897 131.453C222.897 132.41 222.765 133.301 222.633 133.961C222.27 135.611 221.907 136.37 221.379 137.69C220.884 138.977 219.597 139.835 218.178 139.67C216.792 139.538 215.439 139.208 214.119 138.713C213.855 138.614 213.723 138.35 213.756 138.053C213.855 137.195 214.02 136.403 214.251 135.677C214.35 135.38 214.614 135.182 214.911 135.215L216.429 135.413C216.792 133.994 216.957 132.905 216.957 132.047C216.957 129.968 216 129.374 214.449 129.275L211.908 138.152C211.842 138.35 211.611 138.548 211.347 138.581C211.05 138.614 210.72 138.614 210.423 138.614C209.697 138.614 208.971 138.548 208.245 138.416C207.915 138.35 207.684 138.086 207.717 137.756C207.948 134.984 208.311 132.311 208.707 129.539C207.585 129.605 206.628 129.704 206.1 129.737C205.836 129.737 205.539 129.572 205.473 129.308C205.209 128.318 205.077 127.295 205.077 126.206C205.077 125.579 205.11 124.985 205.176 124.358C205.176 124.094 205.407 123.863 205.671 123.83C206.397 123.698 207.981 123.434 209.763 123.203C209.961 121.982 210.192 120.695 210.456 119.342C210.489 119.045 210.753 118.814 211.05 118.814C211.413 118.781 211.776 118.781 212.139 118.781C213.756 118.781 215.241 118.979 216.627 119.342C216.957 119.474 217.122 119.804 217.056 120.134ZM229.86 122.411C230.025 122.51 230.124 122.708 230.124 122.906C230.124 122.972 230.091 123.071 230.058 123.17C229.431 124.556 228.474 125.744 227.22 126.701C227.088 126.8 226.956 126.833 226.824 126.833C226.725 126.833 226.593 126.8 226.527 126.734L221.973 123.764C221.742 123.599 221.643 123.335 221.742 123.038C222.138 121.982 222.666 120.86 223.326 119.771C223.458 119.54 223.755 119.441 224.019 119.507C226.065 120.167 228.012 121.124 229.86 122.411ZM254.082 124.589C258.24 124.589 261.243 127.031 261.243 132.014C261.243 133.862 260.847 136.073 259.923 138.614C259.824 138.911 259.527 139.076 259.23 139.01C257.943 138.779 256.623 138.317 255.27 137.657C254.973 137.525 254.907 137.162 254.973 136.865C255.27 135.776 255.402 134.819 255.402 133.994C255.402 131.981 254.577 130.76 252.96 130.76C252.333 130.76 251.607 130.925 250.749 131.321L250.287 139.01C250.254 139.307 250.056 139.538 249.792 139.604C249.099 139.736 248.472 139.802 247.845 139.802C247.119 139.802 246.459 139.703 245.832 139.571C245.568 139.505 245.37 139.274 245.337 139.01L245.073 134.753C244.182 136.073 243.225 137.327 242.169 138.581C242.07 138.68 241.905 138.779 241.707 138.779C240.849 138.779 240.09 138.383 239.397 137.756C239.265 137.657 239.199 137.492 239.199 137.327C239.199 137.228 239.232 137.162 239.265 137.063C240.321 134.687 241.773 131.387 243.192 127.46L239.265 127.988H239.199C238.935 127.988 238.671 127.79 238.605 127.526C238.275 126.239 238.077 124.919 238.077 123.632C238.077 123.335 238.308 123.071 238.605 123.038C240.156 122.807 241.74 122.675 243.357 122.675H244.314L244.116 119.54V119.474C244.116 119.21 244.314 118.979 244.578 118.913C246.228 118.517 247.911 118.352 249.627 118.352C250.056 118.352 250.485 118.352 250.914 118.385C251.244 118.418 251.508 118.682 251.475 119.045L251.112 124.952C252.168 124.721 253.158 124.589 254.082 124.589ZM62.253 179.109C60.405 177.723 58.722 176.073 57.171 174.093C57.072 173.961 57.039 173.829 57.039 173.697C57.039 173.565 57.072 173.4 57.171 173.301C59.25 170.925 61.494 168.648 63.903 166.536C64.497 166.041 65.223 165.777 65.982 165.777C66.576 165.777 67.17 165.942 67.698 166.305C71.196 168.747 74.496 171.42 77.664 174.357C77.829 174.522 77.895 174.753 77.829 174.984C77.433 176.436 76.608 177.69 75.387 178.812C75.255 178.944 75.123 178.977 74.991 178.977C74.892 178.977 74.793 178.977 74.694 178.911L67.599 174.819L63.045 179.076C62.946 179.175 62.781 179.241 62.616 179.241C62.484 179.241 62.352 179.208 62.253 179.109ZM108.75 161.289C108.816 162.84 108.618 164.424 108.288 166.041C108.255 166.305 108.024 166.503 107.727 166.503C107.265 166.536 106.803 166.569 106.341 166.569C105.252 166.569 104.262 166.47 103.338 166.338C103.239 167.46 103.107 168.582 102.975 169.704C104.493 169.77 105.813 170.034 106.902 170.595C107.133 170.694 107.265 170.925 107.232 171.189C107.133 172.41 106.836 173.565 106.341 174.687C106.209 174.951 105.879 175.116 105.582 175.017L103.14 174.258C103.14 178.548 100.698 180.066 97.728 180.066C94.197 180.066 92.184 177.294 92.184 174.621C92.184 172.278 93.735 169.968 97.134 169.704C96.87 166.041 96.375 162.279 95.748 158.451V158.319C95.748 158.022 95.946 157.758 96.276 157.725C97.497 157.593 98.718 157.527 99.873 157.527C100.962 157.527 102.051 157.593 103.107 157.725C103.404 157.758 103.635 158.022 103.668 158.319C103.668 159.144 103.668 159.969 103.635 160.794C104.625 160.695 105.615 160.629 106.605 160.629C107.133 160.629 107.661 160.662 108.189 160.695C108.486 160.728 108.717 160.959 108.75 161.289ZM97.794 175.809C98.157 175.809 98.454 175.545 98.454 175.182C98.454 174.819 98.157 174.522 97.794 174.522C97.431 174.522 97.167 174.819 97.167 175.182C97.167 175.545 97.431 175.809 97.794 175.809ZM137.757 161.19L129.705 160.497C129.408 160.464 129.144 160.233 129.144 159.903C129.111 159.408 129.078 158.913 129.078 158.451C129.078 157.494 129.177 156.603 129.342 155.778C129.408 155.481 129.672 155.283 129.969 155.283C130.431 155.283 130.926 155.25 131.388 155.25C133.83 155.25 136.173 155.481 138.417 155.976C138.714 156.042 138.912 156.273 138.912 156.57C138.978 158.022 138.813 159.408 138.417 160.728C138.318 161.025 138.054 161.223 137.757 161.19ZM135.381 179.835C134.226 179.604 133.17 179.076 132.18 178.35C132.015 178.218 131.916 178.02 131.916 177.822C131.916 177.723 131.949 177.591 132.015 177.492C132.543 176.7 133.533 175.017 134.226 173.268C134.391 172.839 134.457 172.476 134.457 172.146C134.457 170.628 132.84 170.133 131.223 170.265C129.804 170.397 127.989 170.694 127.098 170.826H126.966C126.702 170.826 126.471 170.661 126.372 170.397C126.009 169.176 125.811 167.988 125.811 166.833C125.811 166.536 125.811 166.239 125.844 165.942C125.844 165.645 126.075 165.381 126.372 165.348C127.263 165.183 129.309 164.853 131.322 164.556C132.345 164.391 133.335 164.325 134.259 164.325C138.318 164.325 141.387 165.81 141.387 168.615C141.387 171.717 139.539 175.083 136.041 179.604C135.876 179.802 135.612 179.901 135.381 179.835ZM171.384 171.585C170.163 171.552 168.942 171.288 167.688 170.793C167.391 170.661 167.226 170.331 167.325 170.001L168.315 166.899C164.85 167.031 161.484 167.163 158.217 167.262C157.92 167.262 157.689 167.097 157.59 166.833C157.062 164.919 156.798 162.906 156.798 160.794C156.798 160.464 157.029 160.2 157.326 160.167C160.857 159.738 164.289 159.54 167.655 159.54C169.338 159.54 171.021 159.606 172.704 159.705C174.387 159.804 175.608 161.223 175.608 162.774C175.608 163.137 175.542 163.467 175.41 163.83C174.486 166.47 173.364 168.978 171.945 171.288C171.813 171.486 171.615 171.618 171.384 171.585ZM161.847 180.495C161.583 180.462 161.352 180.264 161.286 180C161.055 178.713 160.956 177.426 160.989 176.106C160.989 175.743 161.286 175.479 161.616 175.479C162.54 175.512 163.464 175.545 164.388 175.545C166.005 175.545 167.589 175.479 169.107 175.347H169.173C169.47 175.347 169.701 175.578 169.767 175.842C170.031 177.162 170.163 178.449 170.064 179.67C170.031 179.967 169.833 180.198 169.536 180.231C167.82 180.462 166.104 180.594 164.421 180.594C163.563 180.594 162.705 180.561 161.847 180.495ZM193.197 165.744C191.811 164.853 190.392 163.665 188.973 162.213C188.874 162.114 188.808 161.949 188.808 161.817C188.808 161.685 188.841 161.553 188.94 161.421C189.996 160.035 191.184 158.781 192.57 157.791C192.669 157.725 192.801 157.659 192.933 157.659C193.065 157.659 193.197 157.725 193.329 157.824C194.88 159.177 196.2 160.563 197.124 162.048C197.19 162.147 197.223 162.246 197.223 162.378C197.223 162.51 197.157 162.675 197.058 162.774C195.969 163.929 194.913 164.919 193.89 165.711C193.791 165.81 193.626 165.843 193.494 165.843C193.395 165.843 193.296 165.81 193.197 165.744ZM204.714 179.967C202.635 179.637 201.216 178.218 201.216 176.502C201.216 175.743 201.513 174.885 202.173 174.093V174.027L192.702 175.677H192.57C192.339 175.677 192.141 175.545 192.042 175.314C191.58 174.126 191.25 172.74 190.986 171.255V171.156C190.986 170.991 191.052 170.826 191.151 170.727C194.748 166.932 198.84 163.236 203.328 159.573C203.46 159.474 203.592 159.408 203.757 159.408C203.889 159.408 204.021 159.474 204.12 159.54C205.737 160.86 207.024 162.279 207.948 163.83C208.014 163.929 208.047 164.061 208.047 164.16C208.047 164.358 207.948 164.556 207.75 164.688L198.081 170.76L198.18 170.991C200.952 170.562 203.691 170.298 206.265 170.298C206.595 170.298 206.859 170.496 206.892 170.826C206.958 171.255 206.991 171.651 206.991 172.047C206.991 172.344 206.991 172.608 206.958 172.839C206.925 173.037 206.826 173.202 206.694 173.301C205.869 173.763 205.506 174.489 205.506 175.248C205.506 176.073 205.968 176.964 206.727 177.624C206.859 177.756 206.925 177.921 206.925 178.086C206.925 178.251 206.859 178.416 206.76 178.515C206.199 179.109 205.638 179.571 205.077 179.901C204.978 179.967 204.846 179.967 204.714 179.967ZM231.906 173.862C230.157 173.796 228.705 173.433 227.517 172.773C227.352 172.674 227.22 172.443 227.22 172.245C227.319 166.998 227.517 164.061 228.804 158.715C228.87 158.451 229.134 158.22 229.431 158.253C231.873 158.418 234.249 158.913 236.625 159.771C236.922 159.87 237.087 160.167 237.021 160.464C235.701 166.338 234.513 169.176 232.5 173.499C232.401 173.73 232.17 173.862 231.906 173.862ZM229.134 179.868C226.329 180 225.9 178.086 225.9 177.063C225.9 176.139 226.89 175.017 228.408 175.017C230.322 175.017 231.246 176.337 231.246 177.624C231.246 178.746 230.52 179.802 229.134 179.868Z" fill="#454545"/>
</svg>
