<svg width="272" height="43" viewBox="0 0 272 43" fill="none" xmlns="http://www.w3.org/2000/svg">
<rect x="1" y="1" width="270" height="41" rx="20.5" fill="#E9FCFF" stroke="#3D3D3D" stroke-width="2" stroke-dasharray="4 4"/>
<path d="M118.936 15.312C118.84 15.984 118.76 16.816 118.728 17.456C118.648 19.184 118.536 22.752 118.536 24.736C118.536 26.352 119.496 26.88 120.744 26.88C123.384 26.88 125.048 25.36 126.216 23.616L127.672 25.392C126.632 26.928 124.36 29.056 120.712 29.056C118.088 29.056 116.408 27.904 116.408 25.168C116.408 23.024 116.552 18.832 116.552 17.456C116.552 16.688 116.488 15.92 116.36 15.296L118.936 15.312ZM137 19.984C136.536 19.488 135.848 18.88 135.256 18.464L136.68 17.424C137.144 17.728 138.056 18.512 138.44 18.944L137 19.984ZM133.736 18.672C133.896 18.976 134.104 19.392 134.216 19.616C134.68 20.496 135.512 22.24 135.976 23.36C136.584 24.768 137.512 27.52 137.96 28.944L135.944 29.44C135.56 27.824 134.792 25.616 134.2 24.144C133.704 22.928 133 21.392 132.504 20.56C132.328 20.256 132.04 19.792 131.736 19.44L133.736 18.672ZM130.488 22.496C131.096 22.336 131.704 22.144 131.912 22.064C134.28 21.136 137.432 19.52 139.368 19.52C141.704 19.52 142.744 20.976 142.744 22.368C142.744 24.352 141.656 25.584 139.256 25.584C138.568 25.584 137.72 25.36 137.256 25.184L137.304 23.328C137.88 23.6 138.6 23.76 139.112 23.76C140.232 23.76 140.776 23.216 140.776 22.384C140.776 21.84 140.296 21.312 139.288 21.312C137.24 21.312 132.616 23.888 131.4 24.432L130.488 22.496ZM150.936 15.312C150.84 15.984 150.76 16.816 150.728 17.456C150.648 19.184 150.536 22.752 150.536 24.736C150.536 26.352 151.496 26.88 152.744 26.88C155.384 26.88 157.048 25.36 158.216 23.616L159.672 25.392C158.632 26.928 156.36 29.056 152.712 29.056C150.088 29.056 148.408 27.904 148.408 25.168C148.408 23.024 148.552 18.832 148.552 17.456C148.552 16.688 148.488 15.92 148.36 15.296L150.936 15.312ZM170.232 16.128C170.056 16.336 169.896 16.608 169.72 16.88C168.92 18.016 167.8 20.064 167.016 21.488C167.608 21.136 168.232 20.992 168.84 20.992C170.04 20.992 170.76 21.744 170.824 23.088C170.856 23.792 170.824 25.072 170.904 25.744C170.968 26.368 171.4 26.624 171.928 26.624C173.32 26.624 174.184 24.816 174.632 22.832L176.376 24.24C175.528 26.992 174.056 28.816 171.592 28.816C169.816 28.816 169 27.744 168.92 26.592C168.872 25.728 168.872 24.432 168.824 23.776C168.776 23.216 168.472 22.88 167.896 22.88C166.808 22.88 165.896 24 165.336 25.296C164.904 26.224 164.36 28.016 164.12 28.864L161.864 28.096C163.032 24.896 166.312 18.368 167.176 16.832C167.368 16.416 167.672 15.888 167.96 15.216L170.232 16.128Z" fill="#3D3D3D"/>
<mask id="mask0_23_18" style="mask-type:alpha" maskUnits="userSpaceOnUse" x="81" y="10" width="24" height="24">
<rect x="81" y="10" width="24" height="24" fill="#D9D9D9"/>
</mask>
<g mask="url(#mask0_23_18)">
<path d="M93 27.5C94.25 27.5 95.3125 27.0625 96.1875 26.1875C97.0625 25.3125 97.5 24.25 97.5 23C97.5 21.75 97.0625 20.6875 96.1875 19.8125C95.3125 18.9375 94.25 18.5 93 18.5C91.75 18.5 90.6875 18.9375 89.8125 19.8125C88.9375 20.6875 88.5 21.75 88.5 23C88.5 24.25 88.9375 25.3125 89.8125 26.1875C90.6875 27.0625 91.75 27.5 93 27.5ZM93 25.5C92.3 25.5 91.7083 25.2583 91.225 24.775C90.7417 24.2917 90.5 23.7 90.5 23C90.5 22.3 90.7417 21.7083 91.225 21.225C91.7083 20.7417 92.3 20.5 93 20.5C93.7 20.5 94.2917 20.7417 94.775 21.225C95.2583 21.7083 95.5 22.3 95.5 23C95.5 23.7 95.2583 24.2917 94.775 24.775C94.2917 25.2583 93.7 25.5 93 25.5ZM85 31C84.45 31 83.9792 30.8042 83.5875 30.4125C83.1958 30.0208 83 29.55 83 29V17C83 16.45 83.1958 15.9792 83.5875 15.5875C83.9792 15.1958 84.45 15 85 15H88.15L90 13H96L97.85 15H101C101.55 15 102.021 15.1958 102.413 15.5875C102.804 15.9792 103 16.45 103 17V29C103 29.55 102.804 30.0208 102.413 30.4125C102.021 30.8042 101.55 31 101 31H85ZM85 29H101V17H96.95L95.125 15H90.875L89.05 17H85V29Z" fill="#393939"/>
</g>
</svg>
