<svg width="272" height="43" viewBox="0 0 272 43" fill="none" xmlns="http://www.w3.org/2000/svg">
<rect width="272" height="43" rx="21.5" fill="#0390AB"/>
<path d="M116.92 15.76C117.432 15.808 117.896 15.824 118.44 15.824C119.128 15.824 122.12 15.68 123.096 15.568C123.624 15.52 123.992 15.44 124.216 15.376L125.48 16.848C125.144 17.056 124.536 17.456 124.216 17.728C123.064 18.64 121.496 19.952 120.408 20.816C122.552 20.592 125.208 20.432 127.144 20.432L127.16 22.32C125.624 22.224 124.008 22.224 123.032 22.352C121.576 22.56 120.344 23.6 120.344 24.912C120.344 26.176 121.336 26.672 122.776 26.832C123.672 26.928 124.616 26.912 125.208 26.864L124.792 28.976C120.68 29.152 118.296 27.904 118.296 25.248C118.296 24.256 118.872 23.264 119.464 22.72C117.992 22.832 116.216 23.072 114.6 23.36L114.424 21.424C115.272 21.328 116.392 21.2 117.224 21.104C118.648 20.16 120.744 18.352 121.736 17.456C121.08 17.504 119.096 17.6 118.44 17.664C118.056 17.696 117.512 17.76 117.016 17.808L116.92 15.76ZM139.944 22.768C139.944 21.712 139.128 20.864 137.624 20.864C135.864 20.864 134.264 21.392 133.464 21.632C133 21.776 132.36 22.016 131.912 22.208L131.304 19.904C131.848 19.872 132.52 19.744 133.048 19.632C134.216 19.376 136.008 18.912 137.896 18.912C140.424 18.912 142.2 20.352 142.2 22.848C142.2 26.288 139.016 28.4 134.568 29.024L133.432 27.024C137.4 26.576 139.944 25.28 139.944 22.768ZM133.656 15.088C135.528 15.488 139.16 15.808 140.84 15.808L140.536 17.776C138.664 17.648 135.192 17.328 133.352 17.008L133.656 15.088ZM150.936 15.312C150.84 15.984 150.76 16.816 150.728 17.456C150.648 19.184 150.536 22.752 150.536 24.736C150.536 26.352 151.496 26.88 152.744 26.88C155.384 26.88 157.048 25.36 158.216 23.616L159.672 25.392C158.632 26.928 156.36 29.056 152.712 29.056C150.088 29.056 148.408 27.904 148.408 25.168C148.408 23.024 148.552 18.832 148.552 17.456C148.552 16.688 148.488 15.92 148.36 15.296L150.936 15.312ZM170.232 16.128C170.056 16.336 169.896 16.608 169.72 16.88C168.92 18.016 167.8 20.064 167.016 21.488C167.608 21.136 168.232 20.992 168.84 20.992C170.04 20.992 170.76 21.744 170.824 23.088C170.856 23.792 170.824 25.072 170.904 25.744C170.968 26.368 171.4 26.624 171.928 26.624C173.32 26.624 174.184 24.816 174.632 22.832L176.376 24.24C175.528 26.992 174.056 28.816 171.592 28.816C169.816 28.816 169 27.744 168.92 26.592C168.872 25.728 168.872 24.432 168.824 23.776C168.776 23.216 168.472 22.88 167.896 22.88C166.808 22.88 165.896 24 165.336 25.296C164.904 26.224 164.36 28.016 164.12 28.864L161.864 28.096C163.032 24.896 166.312 18.368 167.176 16.832C167.368 16.416 167.672 15.888 167.96 15.216L170.232 16.128Z" fill="white"/>
<mask id="mask0_23_17" style="mask-type:alpha" maskUnits="userSpaceOnUse" x="83" y="10" width="24" height="24">
<rect x="83" y="10" width="24" height="24" fill="#D9D9D9"/>
</mask>
<g mask="url(#mask0_23_17)">
<path d="M86 30V24L94 22L86 20V14L105 22L86 30Z" fill="white"/>
</g>
</svg>
